<svg id="Layer_1" data-name="Layer 1" xmlns="http://www.w3.org/2000/svg" viewBox="0 0 1000 1000"><defs><style>.cls-1{fill:#fffaf7;}.cls-2{fill:#4531b1;}.cls-3{fill:#f16896;}.cls-4{fill:none;}</style></defs><title>Artboard 1</title><path class="cls-1" d="M783.15,162.9l.12.09-.12-.1c-.74-.6-1.52-1.19-2.27-1.76h0C781.63,161.71,782.4,162.3,783.15,162.9Z"/><path class="cls-1" d="M773.08,155.25l.07.05.05,0c2.54,1.87,5.08,3.78,7.51,5.67l0,0,0,0c-2.43-1.89-5-3.8-7.5-5.67l-.07-.05-.06,0L771,153.73l-.84-.61.83.61Z"/><path class="cls-1" d="M769.34,152.51l-.12-.09.08.05-.1-.07,0,0Z"/><polygon class="cls-1" points="769.04 152.29 768.92 152.21 767.49 151.19 768.91 152.22 769.04 152.29"/><path class="cls-1" d="M763.32,148.25l1.11.77-1.1-.77-.8-.54h0v0Z"/><path class="cls-1" d="M762.45,147.65l-.05,0L760.11,146c.76.52,1.53,1,2.29,1.58Z"/><path class="cls-1" d="M753.47,141.57l-.07,0-2.55-1.66,2.54,1.67Z"/><path class="cls-1" d="M573.89,72.06h0q-2.71-.45-5.43-.84l-2.53-.36,2.52.36Q571.19,71.61,573.89,72.06Z"/><path class="cls-1" d="M746.33,137a1.37,1.37,0,0,0-.2-.13h0Z"/><path class="cls-1" d="M690.46,106.91l.06,0,0,0c-4.57-2.07-8.76-3.88-12.79-5.53l-.12,0,.11.06C681.71,103,685.9,104.84,690.46,106.91Z"/><path class="cls-1" d="M742.35,134.49c.91.56,1.83,1.13,2.74,1.71l-2.73-1.71-.15-.09h0Z"/><path class="cls-1" d="M636.27,86.49c-1.08-.34-2.17-.68-3.27-1l-3.38-1c1.13.33,2.25.65,3.37,1S635.18,86.15,636.27,86.49Z"/><path class="cls-1" d="M619.25,81.64l-1.49-.39-.3-.08.3.09Z"/><polygon class="cls-1" points="620.36 81.94 620.33 81.93 620.26 81.91 620.33 81.93 620.36 81.94"/><path class="cls-1" d="M673.94,99.85l.41.16c1,.4,2,.79,2.93,1.21l.11,0-.1,0c-1-.42-1.94-.82-2.93-1.21l-.42-.17-.28-.12-.06,0,0,0Z"/><polygon class="cls-1" points="728.53 126.28 728.51 126.27 728.52 126.28 728.53 126.28"/><path class="cls-1" d="M731,127.7l2.28,1.33c1.45.82,2.88,1.68,4.29,2.54l.19.12h0l0,0-.17-.11c-1.42-.86-2.86-1.71-4.3-2.55L731,127.7l0,0-1-.6,1.05.61Z"/><path class="cls-1" d="M786.64,165.65l.36.29-.37-.3c-1-.83-2-1.62-3-2.4l-.15-.12.15.13C784.6,164,785.6,164.81,786.64,165.65Z"/><path class="cls-1" d="M724.55,124.06l3.1,1.72-3.09-1.73-.78-.43-1.07-.59,1.07.59Z"/><path class="cls-1" d="M691.23,107.27l3.85,1.77q2.22,1,4.36,2l.15.07,0,0-.06,0-.14-.07q-2.14-1-4.35-2l-3.85-1.77v0l-.35-.15a2.67,2.67,0,0,1,.34.15Z"/><path class="cls-1" d="M657.94,93.71c3.27,1.17,6.82,2.52,11.16,4.2l.87.34-.88-.34c-4.34-1.69-7.88-3-11.15-4.2l-2-.7-.27-.09L656,93Z"/><polygon class="cls-1" points="54.03 440.41 54 440.59 53.98 440.77 54.01 440.59 54.03 440.41"/><polygon class="cls-1" points="53.92 441.2 53.89 441.48 53.88 441.53 53.89 441.48 53.92 441.2"/><path class="cls-1" d="M54.57,436.74c.1-.74.22-1.49.34-2.24L55,434l-.09.53c-.11.74-.23,1.49-.33,2.24v.12l0-.05Z"/><path class="cls-1" d="M54.49,437.32c-.07.44-.13.88-.2,1.33l-.17,1.17.18-1.16C54.36,438.2,54.42,437.76,54.49,437.32Z"/><path class="cls-1" d="M52.63,451.39l.18-1.47-.18,1.48v.1l0-.06Z"/><path class="cls-1" d="M50.54,475.72c0,.86-.1,1.71-.14,2.57v0C50.44,477.43,50.49,476.58,50.54,475.72Z"/><path class="cls-1" d="M51.5,462.47c0,.49-.09,1-.14,1.48,0,.25,0,.5,0,.75,0-.25,0-.5.06-.76C51.41,463.45,51.46,463,51.5,462.47Z"/><path class="cls-1" d="M51.06,467.91c0-.22,0-.44,0-.66,0,.22,0,.44-.05.67-.14,1.6-.25,3.27-.36,5.21v0C50.79,471.2,50.91,469.52,51.06,467.91Z"/><path class="cls-1" d="M468.24,67.27c1-.07,2-.09,3-.15C470.25,67.18,469.24,67.2,468.24,67.27Z"/><path class="cls-1" d="M431.1,71.24h0l.07,0Z"/><path class="cls-1" d="M284.89,645.47c.19.41.4.81.59,1.22C285.29,646.28,285.08,645.88,284.89,645.47Z"/><path class="cls-1" d="M516.79,66.53c10.16.37,20.32,1,30.39,2C537.11,67.57,527,66.9,516.79,66.53Z"/><path class="cls-1" d="M594.05,75.8c2.87.59,5.72,1.2,8.57,1.84C599.77,77,596.92,76.39,594.05,75.8Z"/><path class="cls-1" d="M700.14,111.43c6.54,3.13,13.05,6.44,19.43,9.88C713.19,117.86,706.67,114.55,700.14,111.43Z"/><path class="cls-1" d="M793,170.85c-.86-.71-1.71-1.42-2.6-2.14l-1.75-1.41,1.74,1.41C791.32,169.42,792.17,170.14,793,170.85Z"/><path class="cls-1" d="M352.6,255.33A372.49,372.49,0,0,1,491.1,164.8a380,380,0,0,1,49.16-14.66,382.11,382.11,0,0,0-49.17,14.65A372.43,372.43,0,0,0,352.6,255.33Z"/><path class="cls-1" d="M432.7,807h0A367.49,367.49,0,0,1,319.77,704.93a357.17,357.17,0,0,1-28.9-47.14,357.28,357.28,0,0,0,28.9,47.15A367.23,367.23,0,0,0,432.7,807Z"/><path class="cls-1" d="M49.87,496.12h0c0,.48,0,.95,0,1.43v1.27c0-.43,0-.85,0-1.27Z"/><path class="cls-1" d="M146.44,722.13c-61-57.94-95.28-135.27-96.55-217.71l0-1.17v-1.38c0-.42,0-.83,0-1.24v1.23c0,.46,0,.92,0,1.39l0,1.17c1.26,82.45,35.55,159.77,96.54,217.71s141.91,90,227.67,90a340.93,340.93,0,0,0,40.53-2.47,340.89,340.89,0,0,1-40.52,2.46C288.34,812.08,207.49,780.15,146.44,722.13Z"/><path class="cls-1" d="M803.08,179.42l.15.14c.8.69,1.58,1.39,2.37,2.11-.79-.72-1.58-1.42-2.37-2.12l-.15-.14L802,178.5l-.51-.44.52.45Z"/><polygon class="cls-1" points="810.66 186.26 810.5 186.11 810.43 186.04 810.49 186.11 810.66 186.26"/><path class="cls-1" d="M815.09,190.38a.26.26,0,0,1,.09.09l0,0-.12-.12c-.53-.49-1.07-1-1.6-1.5-.7-.67-1.43-1.33-2.15-2,.72.66,1.44,1.32,2.14,2Z"/><path class="cls-1" d="M808.36,184.17c-.69-.63-1.34-1.25-2.07-1.89l-.09-.08.08.09C807,182.92,807.67,183.54,808.36,184.17Z"/><path class="cls-1" d="M50.38,478.58v.05c0,.1,0,.2,0,.29,0-.09,0-.18,0-.28Z"/><polygon class="cls-1" points="50.33 479.76 50.33 479.79 50.33 479.81 50.33 479.78 50.33 479.76"/><path class="cls-1" d="M50,490.77v-.58c0-.28,0-.56,0-.82,0-1.7.08-3.36.15-5.13,0-.42,0-.83,0-1.24,0,.41,0,.82,0,1.23-.07,1.78-.12,3.45-.16,5.13,0,.28,0,.55,0,.82v.6c0,1.38-.05,2.77-.07,4.17v0C49.89,493.55,49.92,492.17,50,490.77Z"/><path class="cls-2" d="M55.05,433.57,55,434l-.08.53c-.12.75-.24,1.5-.34,2.24v.07l0,.05v0c0,.15,0,.29,0,.44-.07.44-.13.88-.19,1.34l-.18,1.16,0,.21-.05.35v0l0,.18,0,.18,0,.08,0,.35,0,.28v0l0,.18c-.19,1.43-.39,2.87-.58,4.32-.16,1.27-.3,2.58-.45,3.89l-.18,1.47v.05l0,.06v0c-.19,1.57-.36,3.15-.54,4.72-.12,1.16-.21,2.35-.33,3.54v.12l-.12,1.17c0,.46-.09.92-.12,1.39s-.09,1-.13,1.47c0,.26,0,.51-.06.76s-.08.76-.11,1.13-.06.95-.1,1.42c0,.22,0,.44,0,.66-.15,1.61-.27,3.29-.37,5.22v.12c-.05.82-.09,1.65-.13,2.47s-.1,1.71-.14,2.57v.35c0,.1,0,.19,0,.28a5.78,5.78,0,0,1,0,.58v.31l0,.28q-.08,1.44-.12,2.91c0,.41,0,.82,0,1.24-.07,1.77-.12,3.43-.15,5.13,0,.26,0,.54,0,.82v.58c0,1.4-.08,2.78-.08,4.18v2.61c0,.42,0,.84,0,1.27s0,.6,0,.9,0,.6,0,.9,0,.82,0,1.24v1.38l0,1.17c1.27,82.44,35.56,159.77,96.55,217.71s141.9,90,227.67,90a340.89,340.89,0,0,0,40.52-2.46c6.05-.72,12.09-1.55,18.08-2.6h0A367.23,367.23,0,0,1,319.77,704.94a357.28,357.28,0,0,1-28.9-47.15c-1.87-3.67-3.65-7.38-5.39-11.1-.19-.41-.4-.81-.59-1.22a346.41,346.41,0,0,1-32-145.74c0-73.88,23.12-144.84,66.85-205.21a366.42,366.42,0,0,1,32.83-39.19,372.43,372.43,0,0,1,138.49-90.54,382.11,382.11,0,0,1,49.17-14.65,386.68,386.68,0,0,1,85.32-9.45c67.73,0,132.8,17.34,189.63,49.81l0,0a.26.26,0,0,0-.09-.09l-1.6-1.51c-.7-.66-1.42-1.32-2.14-2l-.67-.61,0,0-.17-.15-.06-.07-.11-.12c-.61-.56-1.3-1.17-2-1.75s-1.34-1.25-2.08-1.88l-.08-.09-.07-.08L806,182l-.36-.31c-.79-.72-1.57-1.42-2.37-2.11l-.15-.14-1-.91-.52-.45c-1.15-1-2.29-2-3.43-3-1.31-1.12-2.57-2.17-3.82-3.22-.4-.34-.83-.67-1.24-1-.86-.71-1.71-1.43-2.61-2.14l-1.74-1.41-.95-.76,0,0-.71-.55-.36-.29c-1-.84-2-1.63-3-2.4l-.15-.13-.07-.05-.1-.08-.12-.09c-.75-.6-1.52-1.19-2.27-1.77h0l-.07-.06,0,0,0,0c-2.43-1.89-5-3.8-7.51-5.67l-.05,0-.07-.05L771,153.73l-.83-.61-.5-.37-.35-.24-.11-.08,0,0-.09-.07-.07,0-.13-.07-1.42-1-.51-.37L765,149.44l-.61-.42-1.11-.77-.78-.53v0l0,0,0,0-.05,0c-.76-.54-1.53-1.06-2.29-1.58-.18-.12-.36-.26-.55-.38l-.21-.14-.2-.14-5.61-3.78,0,0h0l-.08,0-2.54-1.67-.61-.4,0,0-.07,0c-1.27-.8-2.53-1.62-3.82-2.41l-.2-.14h0l-.09-.07-.12-.07-.82-.5c-.91-.58-1.83-1.15-2.74-1.71l-.15-.1h0l-.13-.09c-1.36-.86-2.74-1.68-4.14-2.52l-.15-.08h0l-.19-.12c-1.41-.86-2.84-1.72-4.29-2.54L731,127.7l0,0-1.05-.61-1.3-.75-.09,0h0l-.06,0-.8-.45-3.1-1.72-.77-.44-1.07-.59c-1-.53-1.9-1.07-2.86-1.58l-.28-.14c-6.38-3.44-12.89-6.75-19.43-9.88l-.43-.22-.08,0,0,0-.15-.07q-2.15-1.08-4.36-2l-3.85-1.77,0,0a2.67,2.67,0,0,0-.34-.15l-.22-.1-.1,0h0l-.06,0c-4.56-2.07-8.75-3.87-12.79-5.52l-.11-.06-.08,0-.09,0-.11,0c-1-.42-1.93-.81-2.93-1.21l-.41-.16-.29-.12,0,0,0,0-1.74-.7L670,98.25l-.87-.34c-4.34-1.68-7.89-3-11.16-4.2l-2-.7-.27-.09-2.06-.75c-5.5-1.91-11.21-3.8-16.95-5.55l-.07,0-.08,0-.28-.08c-1.09-.34-2.18-.67-3.28-1s-2.24-.66-3.37-1l-2-.6c-2.5-.7-4.87-1.35-7.15-2h-.14l-.07,0-.08,0-.93-.24-1.49-.38-.3-.09L617,81c-4.72-1.22-9.56-2.31-14.39-3.4-2.85-.64-5.7-1.25-8.57-1.84-4.83-1-9.66-2-14.52-2.83-1.82-.3-3.61-.6-5.43-.88l-.09,0h-.12q-2.7-.45-5.43-.84l-2.52-.36-3.15-.45q-7.75-1.05-15.61-1.83c-10.07-1-20.23-1.68-30.39-2-5.65-.2-11.31-.32-16.95-.32-9.52,0-19.07.33-28.59.91-1,.06-2,.08-3,.15-10.52.7-21,1.75-31.36,3.14-1.87.25-3.73.53-5.57.79l-.15,0-.07,0h0l-376,362.2Z"/><path class="cls-3" d="M944.74,565.33l0-.33.05-.35c.09-.61.19-1.24.26-1.84l0-.14,0-.24.05-.25c.12-.8.26-1.61.36-2.41l.05-.53.1-.54c0-.26.07-.51.12-.75l.34-2.7.26-1.87c.25-1.8.44-3.48.63-5.15l0-.24c.19-1.61.36-3.12.51-4.66.12-1.28.26-2.5.36-3.69v-.07l.12-1.16c.1-.87.17-1.71.22-2.55l0-.32,0-.33c.12-1.1.19-2.19.26-3.29v-.16l0-.28c.14-1.59.26-3.27.36-5.16v-.12c.12-1.7.22-3.36.31-5l0-.49v-.67l0-.68c.1-1.38.15-2.78.2-4.18.07-1.89.12-3.68.17-5.48l0-.23v-.82c0-1.28,0-2.59,0-3.89V503.3l0-.24c0-1.12,0-2.24,0-3.33s0-2.36,0-3.5v-.1l0-1.11c-1.26-82.44-35.55-159.77-96.52-217.72s-141.92-90-227.7-90a340,340,0,0,0-58.6,5.06A367.29,367.29,0,0,1,679.92,294.52c43.74,60.37,66.86,131.33,66.86,205.21s-23.12,144.84-66.86,205.21c-42.71,59-102,103.83-171.34,129.7a383.38,383.38,0,0,1-134.47,24.1c-67.73,0-132.77-17.33-189.63-49.78l.1.09.27.23.24.24a9.85,9.85,0,0,0,.82.77l.9.84c.72.7,1.45,1.37,2.2,2l.12.12.15.11c1.21,1.12,2.64,2.45,4,3.69l.22.16.19.19c.92.84,1.84,1.68,2.79,2.5l.07.07.1.07q2.43,2.16,5,4.29l.1.07.1.09c1.09.94,2.17,1.87,3.29,2.8l.22.16.72.61.07,0,3.2,2.66.65.54.15.14c.87.7,1.72,1.4,2.62,2.08l.34.25.31.28c.75.63,1.6,1.29,2.54,2l.32.23.29.23c.68.56,1.35,1.1,2,1.57l.22.16.19.16c2.4,1.87,4.89,3.74,7.41,5.58.53.42,1.09.82,1.62,1.21s1.24.91,1.87,1.36c.36.25.7.49,1,.74l.61.42c1,.73,2,1.45,3,2.17l.95.66c.51.34,1,.69,1.52,1l.2.13.22.14c.72.54,1.5,1.05,2.25,1.57l.82.56c1.84,1.26,3.73,2.52,5.62,3.78l.17.09.17.12c.82.56,1.67,1.09,2.49,1.63l.63.4,2.09,1.33,2.2,1.42c1.11.7,2.28,1.45,3.46,2.14s2.35,1.45,3.49,2.15h2.86l5.11,4.69c.77.47,1.57.93,2.37,1.38,1.55.88,3.12,1.77,4.7,2.61l.14.09.15.1c1.23.69,2.47,1.35,3.73,2,6.63,3.62,13.36,7,20.09,10.25,1.51.72,3,1.42,4.46,2.09l.65.33c1.41.63,2.79,1.26,4.19,1.91,4.24,1.92,8.58,3.78,12.81,5.53l.1,0,.1,0c1,.45,2.13.89,3.17,1.31l1,.42,4.23,1.68c3.47,1.35,7.22,2.75,11.14,4.18l.12,0,.13.05c1.21.44,2.42.88,3.65,1.3l.17.05.15,0c5.73,2,11.43,3.89,16.9,5.55l.19.07.17,0c1.12.37,2.21.69,3.32,1l.17,0,.14,0c1.67.52,3.34,1,5,1.5l1.4.39,6,1.63c1.11.31,2.11.56,3.1.82l.24,0c12.4,3.22,25,5.92,37.46,8.05l.15,0,.14,0,5.16.86h.12l.1,0c2,.33,3.68.59,5.21.79l.24,0,.24,0c1.74.28,3.51.51,5.26.74l.14,0a474,474,0,0,0,125.92,0l.44-.08c1.67-.23,3.31-.44,5-.69l.24,0,.17,0L944.64,566C944.67,565.75,944.69,565.54,944.74,565.33Z"/><polygon class="cls-4" points="366.61 433.54 300.71 500.71 366.61 567.88 432.5 500.71 366.61 433.54"/><polygon class="cls-4" points="565.71 364.93 499.81 297.75 433.91 364.93 499.81 432.1 565.71 364.93"/><polygon class="cls-4" points="565.71 636.49 499.81 569.32 433.91 636.49 499.81 703.67 565.71 636.49"/><polygon class="cls-4" points="633.01 433.54 567.12 500.71 633.01 567.88 698.91 500.71 633.01 433.54"/><polygon class="cls-2" points="589.33 659.2 564.39 633.78 499.81 699.61 435.23 633.78 410.29 659.2 499.81 750.46 589.33 659.2"/><polygon class="cls-3" points="605.4 409.45 540.83 475.29 565.77 500.71 630.35 434.88 605.4 409.45"/><polygon class="cls-3" points="474.87 542.52 410.29 608.35 435.23 633.78 499.81 567.95 474.87 542.52"/><polygon class="cls-3" points="524.75 458.89 589.33 393.06 564.39 367.64 499.81 433.47 524.75 458.89"/><polygon class="cls-3" points="454.83 520.97 430.99 496.67 369.27 559.59 393.11 583.89 454.83 520.97"/><polygon class="cls-3" points="454.83 472.37 393.11 409.45 369.27 433.75 430.99 496.67 454.83 472.37"/><polygon class="cls-3" points="474.87 458.89 499.81 433.47 435.23 367.64 410.29 393.06 474.87 458.89"/><polygon class="cls-3" points="540.83 526.13 605.4 591.96 630.35 566.54 565.77 500.71 540.83 526.13"/><polygon class="cls-3" points="589.33 608.35 524.75 542.52 499.81 567.95 564.39 633.78 589.33 608.35"/><polygon class="cls-2" points="369.27 434.88 344.33 409.45 254.81 500.71 344.33 591.96 369.27 566.54 304.69 500.71 369.27 434.88"/><polygon class="cls-2" points="655.29 409.45 630.35 434.88 694.93 500.71 630.35 566.54 655.29 591.96 744.81 500.71 655.29 409.45"/><polygon class="cls-2" points="564.39 367.64 589.33 342.22 499.81 250.96 410.29 342.22 435.23 367.64 499.81 301.81 564.39 367.64"/></svg>