<?xml version="1.0" encoding="utf-8"?>
<!-- Generator: Adobe Illustrator 22.1.0, SVG Export Plug-In . SVG Version: 6.00 Build 0)  -->
<svg version="1.1" id="Layer_1" xmlns="http://www.w3.org/2000/svg" xmlns:xlink="http://www.w3.org/1999/xlink" x="0px" y="0px"
	 viewBox="0 0 1000 1000" style="enable-background:new 0 0 1000 1000;" xml:space="preserve">
<style type="text/css">
	.st0{fill:#FF006E;}
	.st1{fill:#0059CC;}
	.st2{fill:#8338EC;}
	.st3{fill:#3A86FF;}
	.st4{opacity:0.4;}
	.st5{fill:url(#SVGID_1_);}
	.st6{fill:url(#SVGID_2_);}
	.st7{opacity:0.2;}
	.st8{fill:url(#SVGID_3_);}
	.st9{fill:url(#SVGID_4_);}
	.st10{fill:url(#SVGID_5_);}
	.st11{fill:url(#SVGID_6_);}
	.st12{fill:url(#SVGID_7_);}
	.st13{fill:url(#SVGID_8_);}
	.st14{fill:url(#SVGID_9_);}
	.st15{fill:none;stroke:#A6A9AB;stroke-width:0.3712;stroke-miterlimit:10;}
	.st16{opacity:0.3;fill:url(#SVGID_10_);}
	.st17{opacity:0.5;}
	.st18{fill:url(#SVGID_11_);}
	.st19{fill:url(#SVGID_12_);}
	.st20{fill:url(#SVGID_13_);}
</style>
<g>
	<path class="st0" d="M546.5,503c0,3.8-1.5,7.7-4.4,10.6l-68.8,68.8c-51,51-134.1,51-185.1,0c-24.7-24.7-38.3-57.6-38.3-92.6
		c0-35,13.6-67.8,38.3-92.6c24.7-24.7,57.6-38.3,92.6-38.3c35,0,67.8,13.6,92.6,38.3c5.9,5.9,5.9,15.4,0,21.2
		c-5.9,5.9-15.4,5.9-21.2,0c-19.1-19.1-44.4-29.5-71.3-29.5c-26.9,0-52.3,10.5-71.3,29.5c-19.1,19.1-29.5,44.4-29.5,71.3
		c0,26.9,10.5,52.3,29.5,71.3c39.3,39.3,103.3,39.3,142.7,0l68.8-68.8c5.9-5.9,15.4-5.9,21.2,0C545,495.3,546.5,499.1,546.5,503z"/>
	<path class="st1" d="M440.4,445.1c0,3.8-1.5,7.7-4.4,10.6c-5.9,5.9-15.4,5.9-21.2,0c-18.8-18.8-49.4-18.8-68.1,0
		c-9.1,9.1-14.1,21.2-14.1,34.1c0,12.9,5,25,14.1,34.1c9.1,9.1,21.2,14.1,34.1,14.1c12.9,0,25-5,34.1-14.1c5.9-5.9,15.4-5.9,21.2,0
		c5.9,5.9,5.9,15.4,0,21.2c-14.8,14.8-34.4,22.9-55.3,22.9c-20.9,0-40.5-8.1-55.3-22.9c-14.8-14.8-22.9-34.4-22.9-55.3
		c0-20.9,8.1-40.5,22.9-55.3c30.5-30.5,80.1-30.5,110.6,0C438.9,437.5,440.4,441.3,440.4,445.1z"/>
	<path class="st2" d="M749.8,489.8c0,35-13.6,67.8-38.3,92.6c-51,51-134.1,51-185.1,0c-5.9-5.9-5.9-15.4,0-21.2
		c5.9-5.9,15.4-5.9,21.2,0c39.3,39.3,103.3,39.3,142.7,0c19.1-19.1,29.5-44.4,29.5-71.3c0-26.9-10.5-52.3-29.5-71.3
		c-19.1-19.1-44.4-29.5-71.3-29.5c-26.9,0-52.3,10.5-71.3,29.5l-68.8,68.8c-5.9,5.9-15.4,5.9-21.2,0c-5.9-5.9-5.9-15.4,0-21.2
		l68.8-68.8c51-51,134.1-51,185.1,0C736.1,422,749.8,454.9,749.8,489.8z"/>
	<path class="st3" d="M697.1,489.8c0,20.9-8.1,40.5-22.9,55.3c-14.8,14.8-34.4,22.9-55.3,22.9c-20.9,0-40.5-8.1-55.3-22.9
		c-5.9-5.9-5.9-15.4,0-21.2c5.9-5.9,15.4-5.9,21.2,0c9.1,9.1,21.2,14.1,34.1,14.1c12.9,0,25-5,34.1-14.1
		c9.1-9.1,14.1-21.2,14.1-34.1c0-12.9-5-25-14.1-34.1c-18.8-18.8-49.4-18.8-68.1,0c-5.9,5.9-15.4,5.9-21.2,0
		c-5.9-5.9-5.9-15.4,0-21.2c30.5-30.5,80.1-30.5,110.6,0C688.9,449.3,697.1,468.9,697.1,489.8z"/>
	<g class="st4">
		<linearGradient id="SVGID_1_" gradientUnits="userSpaceOnUse" x1="249.7534" y1="489.8599" x2="546.427" y2="489.8599">
			<stop  offset="0" style="stop-color:#FFFFFF"/>
			<stop  offset="0.108" style="stop-color:#FAFAFA"/>
			<stop  offset="0.2318" style="stop-color:#ECECEC"/>
			<stop  offset="0.3633" style="stop-color:#D5D5D5"/>
			<stop  offset="0.5004" style="stop-color:#B5B5B5"/>
			<stop  offset="0.6417" style="stop-color:#8C8C8C"/>
			<stop  offset="0.7865" style="stop-color:#595959"/>
			<stop  offset="0.9316" style="stop-color:#1E1E1E"/>
			<stop  offset="1" style="stop-color:#000000"/>
		</linearGradient>
		<path class="st5" d="M542.1,513.6c2.8-2.8,4.2-6.4,4.4-10.1c-11.7,1.6-22.5,7-31,15.4l-51.8,51.8c-45.2,45.2-118.8,46.5-164.3,1.6
			c-45.9-45.2-46.1-119.1-0.6-164.5c41.2-41.2,105.8-44.9,151.1-11c8.1,6.1,17.7,9.9,27.8,10.8c-0.1-3.8-1.5-7.5-4.4-10.4
			c-24.7-24.7-57.6-38.3-92.6-38.3c-35,0-67.8,13.6-92.6,38.3c-24.7,24.7-38.3,57.6-38.3,92.6s13.6,67.8,38.3,92.6
			c51,51,134.1,51,185.1,0L542.1,513.6z"/>
		
			<linearGradient id="SVGID_2_" gradientUnits="userSpaceOnUse" x1="4121.5918" y1="1247.384" x2="4121.5918" y2="951.644" gradientTransform="matrix(0 -1 1 0 -670.5529 4611.0752)">
			<stop  offset="0" style="stop-color:#FFFFFF"/>
			<stop  offset="0.108" style="stop-color:#FAFAFA"/>
			<stop  offset="0.2318" style="stop-color:#ECECEC"/>
			<stop  offset="0.3633" style="stop-color:#D5D5D5"/>
			<stop  offset="0.5004" style="stop-color:#B5B5B5"/>
			<stop  offset="0.6417" style="stop-color:#8C8C8C"/>
			<stop  offset="0.7865" style="stop-color:#595959"/>
			<stop  offset="0.9316" style="stop-color:#1E1E1E"/>
			<stop  offset="1" style="stop-color:#000000"/>
		</linearGradient>
		<path class="st6" d="M298.7,407.7c-45.5,45.5-45.3,119.3,0.6,164.5c45.5,44.9,119.1,43.5,164.3-1.6l51.8-51.8
			c8.4-8.4,19.3-13.8,31-15.4c0-0.2,0-0.3,0-0.5c0-3.8-1.5-7.7-4.4-10.6c-5.9-5.9-15.4-5.9-21.2,0L452,561
			c-39.3,39.3-103.3,39.3-142.7,0c-19.1-19.1-29.5-44.4-29.5-71.3c0-26.9,10.5-52.3,29.5-71.3c19.1-19.1,44.4-29.5,71.3-29.5
			c26.9,0,52.3,10.5,71.3,29.5c5.9,5.9,15.4,5.9,21.2,0c3-3,4.5-6.9,4.4-10.9c-10-0.9-19.6-4.7-27.8-10.8
			C404.5,362.8,339.9,366.5,298.7,407.7z"/>
	</g>
	<g class="st7">
		
			<linearGradient id="SVGID_3_" gradientUnits="userSpaceOnUse" x1="4121.4038" y1="1197.0077" x2="4121.4038" y2="1016.0534" gradientTransform="matrix(0 -1 1 0 -670.5529 4611.0752)">
			<stop  offset="0" style="stop-color:#FFFFFF"/>
			<stop  offset="0.108" style="stop-color:#FAFAFA"/>
			<stop  offset="0.2318" style="stop-color:#ECECEC"/>
			<stop  offset="0.3633" style="stop-color:#D5D5D5"/>
			<stop  offset="0.5004" style="stop-color:#B5B5B5"/>
			<stop  offset="0.6417" style="stop-color:#8C8C8C"/>
			<stop  offset="0.7865" style="stop-color:#595959"/>
			<stop  offset="0.9316" style="stop-color:#1E1E1E"/>
			<stop  offset="1" style="stop-color:#000000"/>
		</linearGradient>
		<path class="st8" d="M332.9,448.3c-20.5,23.6-20.5,59.3,0,82.8c21.3,24.5,56.5,28.3,82.2,11.6c7.6-4.9,16.3-7.6,25.3-8.2
			c0-3.9-1.4-7.8-4.4-10.7c-5.9-5.9-15.4-5.9-21.2,0c-9.1,9.1-21.2,14.1-34.1,14.1c-12.9,0-25-5-34.1-14.1
			c-9.1-9.1-14.1-21.2-14.1-34.1c0-12.9,5-25,14.1-34.1c18.8-18.8,49.4-18.8,68.1,0c5.9,5.9,15.4,5.9,21.2,0
			c2.9-2.9,4.4-6.8,4.4-10.6c0-0.1,0-0.1,0-0.2c-9-0.6-17.7-3.3-25.3-8.2C389.4,419.9,354.2,423.8,332.9,448.3z"/>
		<linearGradient id="SVGID_4_" gradientUnits="userSpaceOnUse" x1="302.4529" y1="489.7216" x2="440.3582" y2="489.7216">
			<stop  offset="0" style="stop-color:#FFFFFF"/>
			<stop  offset="0.108" style="stop-color:#FAFAFA"/>
			<stop  offset="0.2318" style="stop-color:#ECECEC"/>
			<stop  offset="0.3633" style="stop-color:#D5D5D5"/>
			<stop  offset="0.5004" style="stop-color:#B5B5B5"/>
			<stop  offset="0.6417" style="stop-color:#8C8C8C"/>
			<stop  offset="0.7865" style="stop-color:#595959"/>
			<stop  offset="0.9316" style="stop-color:#1E1E1E"/>
			<stop  offset="1" style="stop-color:#000000"/>
		</linearGradient>
		<path class="st9" d="M325.4,434.4c-14.8,14.8-22.9,34.4-22.9,55.3c0,20.9,8.1,40.5,22.9,55.3c14.8,14.8,34.4,22.9,55.3,22.9
			c20.9,0,40.5-8.1,55.3-22.9c2.9-2.9,4.4-6.7,4.4-10.5c-9,0.6-17.7,3.3-25.3,8.2c-25.7,16.7-60.9,12.8-82.2-11.6
			c-20.5-23.6-20.5-59.3,0-82.8c21.3-24.5,56.5-28.3,82.2-11.6c7.6,4.9,16.3,7.6,25.3,8.2c0-3.8-1.5-7.6-4.4-10.5
			C405.5,403.9,355.9,403.9,325.4,434.4z"/>
	</g>
	<g class="st7">
		
			<linearGradient id="SVGID_5_" gradientUnits="userSpaceOnUse" x1="4121.2153" y1="1487.3717" x2="4121.2153" y2="1189.7135" gradientTransform="matrix(0 -1 1 0 -670.5529 4611.0752)">
			<stop  offset="0" style="stop-color:#FFFFFF"/>
			<stop  offset="0.108" style="stop-color:#FAFAFA"/>
			<stop  offset="0.2318" style="stop-color:#ECECEC"/>
			<stop  offset="0.3633" style="stop-color:#D5D5D5"/>
			<stop  offset="0.5004" style="stop-color:#B5B5B5"/>
			<stop  offset="0.6417" style="stop-color:#8C8C8C"/>
			<stop  offset="0.7865" style="stop-color:#595959"/>
			<stop  offset="0.9316" style="stop-color:#1E1E1E"/>
			<stop  offset="1" style="stop-color:#000000"/>
		</linearGradient>
		<path class="st10" d="M700.8,571.6c45.5-45.5,45.3-119.3-0.6-164.5c-45.5-44.9-119.1-43.5-164.3,1.6L484,460.6
			c-8.4,8.4-19.3,13.8-31,15.4c-0.2,4,1.3,8.1,4.4,11.2c5.9,5.9,15.4,5.9,21.2,0l68.8-68.8c19.1-19.1,44.4-29.5,71.3-29.5
			c26.9,0,52.3,10.5,71.3,29.5c19.1,19.1,29.5,44.4,29.5,71.3c0,26.9-10.5,52.3-29.5,71.3c-39.3,39.3-103.3,39.3-142.7,0
			c-5.9-5.9-15.4-5.9-21.2,0c-3,3-4.4,6.9-4.4,10.8c10,0.9,19.6,4.7,27.8,10.8C595,616.5,659.6,612.8,700.8,571.6z"/>
		<linearGradient id="SVGID_6_" gradientUnits="userSpaceOnUse" x1="453.0824" y1="489.7024" x2="749.7534" y2="489.7024">
			<stop  offset="0" style="stop-color:#FFFFFF"/>
			<stop  offset="0.108" style="stop-color:#FAFAFA"/>
			<stop  offset="0.2318" style="stop-color:#ECECEC"/>
			<stop  offset="0.3633" style="stop-color:#D5D5D5"/>
			<stop  offset="0.5004" style="stop-color:#B5B5B5"/>
			<stop  offset="0.6417" style="stop-color:#8C8C8C"/>
			<stop  offset="0.7865" style="stop-color:#595959"/>
			<stop  offset="0.9316" style="stop-color:#1E1E1E"/>
			<stop  offset="1" style="stop-color:#000000"/>
		</linearGradient>
		<path class="st11" d="M457.5,466c-2.8,2.8-4.2,6.4-4.4,10c11.7-1.6,22.5-7,31-15.4l51.8-51.8c45.2-45.2,118.8-46.5,164.3-1.6
			c45.9,45.2,46.1,119.1,0.6,164.5c-41.2,41.2-105.8,44.9-151.1,11c-8.1-6.1-17.7-9.9-27.8-10.8c0,3.8,1.5,7.5,4.4,10.4
			c51,51,134.1,51,185.1,0c24.7-24.7,38.3-57.6,38.3-92.6s-13.6-67.8-38.3-92.6c-51-51-134.1-51-185.1,0L457.5,466z"/>
	</g>
	<g class="st7">
		
			<linearGradient id="SVGID_7_" gradientUnits="userSpaceOnUse" x1="4121.4038" y1="1185.8125" x2="4121.4038" y2="1358.1726" gradientTransform="matrix(0 -1 1 0 -670.5529 4611.0752)">
			<stop  offset="0" style="stop-color:#FFFFFF"/>
			<stop  offset="0.108" style="stop-color:#FAFAFA"/>
			<stop  offset="0.2318" style="stop-color:#ECECEC"/>
			<stop  offset="0.3633" style="stop-color:#D5D5D5"/>
			<stop  offset="0.5004" style="stop-color:#B5B5B5"/>
			<stop  offset="0.6417" style="stop-color:#8C8C8C"/>
			<stop  offset="0.7865" style="stop-color:#595959"/>
			<stop  offset="0.9316" style="stop-color:#1E1E1E"/>
			<stop  offset="1" style="stop-color:#000000"/>
		</linearGradient>
		<path class="st12" d="M667,489.7c0,12.9-5,25-14.1,34.1c-9.1,9.1-21.2,14.1-34.1,14.1c-12.9,0-25-5-34.1-14.1
			c-5.9-5.9-15.4-5.9-21.2,0c-3,3-4.4,6.8-4.4,10.7c9,0.6,17.7,3.3,25.3,8.2c25.7,16.7,60.9,12.8,82.2-11.6
			c20.5-23.6,20.5-59.3,0-82.8c-21.3-24.5-56.5-28.3-82.2-11.6c-7.6,4.9-16.3,7.6-25.3,8.2c0,3.9,1.4,7.8,4.4,10.8
			c5.9,5.9,15.4,5.9,21.2,0c18.8-18.8,49.4-18.8,68.1,0C662,464.7,667,476.8,667,489.7z"/>
		<linearGradient id="SVGID_8_" gradientUnits="userSpaceOnUse" x1="559.1493" y1="489.7216" x2="697.0538" y2="489.7216">
			<stop  offset="0" style="stop-color:#FFFFFF"/>
			<stop  offset="0.108" style="stop-color:#FAFAFA"/>
			<stop  offset="0.2318" style="stop-color:#ECECEC"/>
			<stop  offset="0.3633" style="stop-color:#D5D5D5"/>
			<stop  offset="0.5004" style="stop-color:#B5B5B5"/>
			<stop  offset="0.6417" style="stop-color:#8C8C8C"/>
			<stop  offset="0.7865" style="stop-color:#595959"/>
			<stop  offset="0.9316" style="stop-color:#1E1E1E"/>
			<stop  offset="1" style="stop-color:#000000"/>
		</linearGradient>
		<path class="st13" d="M666.6,448.3c20.5,23.6,20.5,59.3,0,82.8c-21.3,24.5-56.5,28.3-82.2,11.6c-7.6-4.9-16.3-7.6-25.3-8.2
			c0,3.8,1.5,7.6,4.4,10.5c14.8,14.8,34.4,22.9,55.3,22.9c20.9,0,40.5-8.1,55.3-22.9c14.8-14.8,22.9-34.4,22.9-55.3
			c0-20.9-8.1-40.5-22.9-55.3c-30.5-30.5-80.1-30.5-110.6,0c-2.9,2.9-4.4,6.7-4.4,10.5c9-0.6,17.7-3.3,25.3-8.2
			C610.1,419.9,645.3,423.8,666.6,448.3z"/>
	</g>
	<linearGradient id="SVGID_9_" gradientUnits="userSpaceOnUse" x1="416.4901" y1="947.5344" x2="1176.2457" y2="-73.2832">
		<stop  offset="0" style="stop-color:#00BAEC"/>
		<stop  offset="5.955058e-02" style="stop-color:#08B1E5"/>
		<stop  offset="0.3517" style="stop-color:#2A87C4"/>
		<stop  offset="0.616" style="stop-color:#4368AD"/>
		<stop  offset="0.8411" style="stop-color:#53569E"/>
		<stop  offset="1" style="stop-color:#584F99"/>
	</linearGradient>
	<path class="st14" d="M969.8,413.2v153.5c0,128-104.2,232.2-232.2,232.2h-401c-36.5-0.6-65.9-30.4-65.9-67.1s29.4-66.5,65.9-67.1
		h401c54.1,0,98.1-44,98.1-98.1V413.2c0-54.1-44-98.1-98.1-98.1h-78.8c37.1,0,67.1-30,67.1-67.1c0-36.7-29.4-66.4-65.9-67h77.6
		C865.6,181,969.8,285.2,969.8,413.2z"/>
	<path class="st0" d="M730.9,248c0,37.1-30,67.1-67.1,67.1H257.1c-54.1,0-98.1,44-98.1,98.1v153.5c0,54.1,44,98.1,98.1,98.1h84.5
		c-36.5,0.6-65.9,30.4-65.9,67.1s29.4,66.5,65.9,67.1h-84.5C129,799,24.8,694.8,24.8,566.7V413.2C24.8,285.2,129,181,257.1,181
		h407.9C701.5,181.6,730.9,211.4,730.9,248z"/>
	<path class="st15" d="M664.9,181h-2.3c0.4,0,0.8,0,1.1,0C664.2,181,664.6,181,664.9,181z"/>
	<path class="st15" d="M343.8,664.8h-2.3c0.4,0,0.8,0,1.1,0C343.1,664.8,343.5,664.8,343.8,664.8z"/>
	
		<linearGradient id="SVGID_10_" gradientUnits="userSpaceOnUse" x1="-151.3297" y1="650.6716" x2="-406.7065" y2="799.6412" gradientTransform="matrix(0.7071 0.7071 -0.7071 0.7071 1586.0656 3.7529)">
		<stop  offset="0.4935" style="stop-color:#FFFFFF"/>
		<stop  offset="0.5482" style="stop-color:#FAFAFA"/>
		<stop  offset="0.6109" style="stop-color:#ECECEC"/>
		<stop  offset="0.6775" style="stop-color:#D5D5D5"/>
		<stop  offset="0.747" style="stop-color:#B5B5B5"/>
		<stop  offset="0.8185" style="stop-color:#8C8C8C"/>
		<stop  offset="0.8919" style="stop-color:#595959"/>
		<stop  offset="0.9654" style="stop-color:#1E1E1E"/>
		<stop  offset="1" style="stop-color:#000000"/>
	</linearGradient>
	<path class="st16" d="M742.6,181l-77.6,0c36.5,0.6,65.9,30.4,65.9,67c0,37.1-30,67.1-67.1,67.1h78.8c54.1,0,98.1,44,98.1,98.1v7.7
		l120.4-86.3C928.8,245.2,843.1,181,742.6,181z"/>
	<g class="st17">
		
			<linearGradient id="SVGID_11_" gradientUnits="userSpaceOnUse" x1="225.1913" y1="871.2021" x2="222.8468" y2="350.7629" gradientTransform="matrix(1 0 0 1 -82.394 -47.998)">
			<stop  offset="0.4935" style="stop-color:#FFFFFF"/>
			<stop  offset="0.5482" style="stop-color:#FAFAFA"/>
			<stop  offset="0.6109" style="stop-color:#ECECEC"/>
			<stop  offset="0.6775" style="stop-color:#D5D5D5"/>
			<stop  offset="0.747" style="stop-color:#B5B5B5"/>
			<stop  offset="0.8185" style="stop-color:#8C8C8C"/>
			<stop  offset="0.8919" style="stop-color:#595959"/>
			<stop  offset="0.9654" style="stop-color:#1E1E1E"/>
			<stop  offset="1" style="stop-color:#000000"/>
		</linearGradient>
		<path class="st18" d="M24.8,476.4v26.9c0,176.6,146.1,161.2,146.1,161.2h77.9c-50.2-4.2-89.8-46.4-89.8-97.7V413.2
			c0-54.1,44-98.1,98.1-98.1h-86.2C170.9,315.2,24.8,299.7,24.8,476.4z"/>
		
			<linearGradient id="SVGID_12_" gradientUnits="userSpaceOnUse" x1="947.7435" y1="186.1098" x2="936.0217" y2="666.6948" gradientTransform="matrix(1 0 0 1 -82.394 -47.998)">
			<stop  offset="0.4935" style="stop-color:#FFFFFF"/>
			<stop  offset="0.5482" style="stop-color:#FAFAFA"/>
			<stop  offset="0.6109" style="stop-color:#ECECEC"/>
			<stop  offset="0.6775" style="stop-color:#D5D5D5"/>
			<stop  offset="0.747" style="stop-color:#B5B5B5"/>
			<stop  offset="0.8185" style="stop-color:#8C8C8C"/>
			<stop  offset="0.8919" style="stop-color:#595959"/>
			<stop  offset="0.9654" style="stop-color:#1E1E1E"/>
			<stop  offset="1" style="stop-color:#000000"/>
		</linearGradient>
		<path class="st19" d="M974.8,476.4v26.9c0,176.6-146.1,161.2-146.1,161.2h-77.9c50.2-4.2,89.8-46.4,89.8-97.7V413.2
			c0-54.1-44-98.1-98.1-98.1h86.2C828.8,315.2,974.8,299.7,974.8,476.4z"/>
		
			<linearGradient id="SVGID_13_" gradientUnits="userSpaceOnUse" x1="-652.2357" y1="1556.3356" x2="-394.1978" y2="1419.7797" gradientTransform="matrix(0.7071 0.7071 -0.7071 0.7071 1586.0656 3.7529)">
			<stop  offset="0.4935" style="stop-color:#FFFFFF"/>
			<stop  offset="0.5482" style="stop-color:#FAFAFA"/>
			<stop  offset="0.6109" style="stop-color:#ECECEC"/>
			<stop  offset="0.6775" style="stop-color:#D5D5D5"/>
			<stop  offset="0.747" style="stop-color:#B5B5B5"/>
			<stop  offset="0.8185" style="stop-color:#8C8C8C"/>
			<stop  offset="0.8919" style="stop-color:#595959"/>
			<stop  offset="0.9654" style="stop-color:#1E1E1E"/>
			<stop  offset="1" style="stop-color:#000000"/>
		</linearGradient>
		<path class="st20" d="M257.1,799l84.5,0c-36.5-0.6-65.9-30.4-65.9-67.1c0-36.7,29.4-66.5,65.9-67.1l-84.5,0
			c-46,0-84.6-31.8-95.2-74.5L67.1,700C109.1,759.8,178.6,799,257.1,799z"/>
	</g>
</g>
</svg>
